<svg xmlns="http://www.w3.org/2000/svg" viewBox="0 0 512 512">
  <!-- Background -->
  <rect width="512" height="512" rx="112" fill="#222241"/>
  <!-- White logo, scaled and centered inside the square -->
  <!-- Original viewBox: 0 0 5761.57 2481.55, scaled to width=432, centered -->
  <g transform="translate(40, 163) scale(0.07498)">
    <!-- Illustration (teal) -->
    <path fill="#aac5db" d="M1982.96,946.68c974.95-627.65,1661.17,20.92,1546.68-110.62-435.51-500.39-990.69-266.25-873.01-328.73,811.76-430.98,1338.98-280.35,2000.1,757.36,61.42,96.4-2601.81-323.08-2693.13-138.99-45.73,92.19,2288.56,169.41,3629.23,459.64,223.4,48.36,412.58,29.15-731.07-262.06-451.9-652.75-667.42-1085.88-1318.06-1267.85-585.4-163.72-916.36,66.95-1733.27,281.08-474.72,124.44-975.79,153.39-1282.15,162.6-231.04,6.94,118.46,152.71,786.4,56.91,402.33-57.7,679.49-122.49,485.5,14.69-402.62,284.72-586.56,331.33-748.98,397.82-355.74,145.63-776.43,136.32-932.84,178.87-128.32,34.91,90.38,72.31,317.28,64.08,274.07-9.95,509.51-36.83,415.86,46.49C499.12,1571.46-74.81,1811.68,8.08,1816.06c247.92,13.1,1037.34-520.07,1633.79-930.46,697.66-480.03,971.41-612.99,1356.44-660.79,119.85-14.88-418.16,69.53-1175.27,635.18-447.8,334.55-1283.34,799.55-952.09,802.16,178.55,1.41,739.58,0,2919.6-2.09,1239.64-1.19,1600.36,34.26,1506.38-10.41-255.24-121.34-1643.28-143.33-2602.64-154.82-698.78-8.37-1153.24-9.25-1327.47-8.37-147.05.74,290.37-330.05,616.14-539.78Z"/>
    <path fill="#aac5db" d="M836.88,710.87c-201.64,75.17-492.41,235.71-296.97,199.88,128.49-23.56,403.5-85.43,658.89-249.13,83.52-53.54-217.24-4.68-361.92,49.26Z"/>
    <!-- מעוז word mark -->
    <path fill="#ffffff" d="M1424.28,783.46h223.29c-43.19,44.51-63.53,107.53-63.53,195.24,0,73.28,14.48,158.25,28.49,240.42l.55,3.33c30.49,173.28,80.39,426.91,80.88,429.45l2.01,10.19h195.09l-2.94-15.05s-39.44-202.06-85.63-444.52c-3.31-17.49-6.59-34.41-9.77-50.76-15.81-81.42-29.48-151.74-29.48-212.49s14.43-111.32,46.66-155.8h185.28v-167.68h-570.91v167.68Z"/>
    <rect fill="#ffffff" x="2155.69" y="615.78" width="206.18" height="1046.3"/>
    <path fill="#ffffff" d="M3155.61,1105.72c0,228.01-98.86,289.48-251.05,349.34l-155.02-839.29h-209.73l180.85,901.27-284.95,100.46,46.79,155.15,12.51-4.49c3.14-1.13,316.1-113.14,429.34-155.96,316.56-117.26,428.76-263.9,428.76-560.35v-436.08h-197.5v489.95Z"/>
    <path fill="#ffffff" d="M3964.12,615.78h-462.04v167.68h166.3l-192.47,878.63h199.18l185.73-889.21h111c142.76,0,201,77.46,201,267.41v459.89h-280.03v161.91h474.67v-537.09c0-314.38-67.46-509.21-403.33-509.21Z"/>
  </g>
</svg>
