<?xml version="1.0" encoding="UTF-8"?>
<svg id="Layer_2" data-name="Layer 2" xmlns="http://www.w3.org/2000/svg" viewBox="0 0 5761.57 2481.55">
  <defs>
    <style>
      .cls-1 {
        fill: #ffffff;
      }

      .cls-1, .cls-2 {
        stroke-width: 0px;
      }

      .cls-2 {
        fill: #aac5db;
      }
    </style>
  </defs>
  <g id="Layer_1-2" data-name="Layer 1">
    <g>
      <path class="cls-2" d="M1982.96,946.68c974.95-627.65,1661.17,20.92,1546.68-110.62-435.51-500.39-990.69-266.25-873.01-328.73,811.76-430.98,1338.98-280.35,2000.1,757.36,61.42,96.4-2601.81-323.08-2693.13-138.99-45.73,92.19,2288.56,169.41,3629.23,459.64,223.4,48.36,412.58,29.15-731.07-262.06-451.9-652.75-667.42-1085.88-1318.06-1267.85-585.4-163.72-916.36,66.95-1733.27,281.08-474.72,124.44-975.79,153.39-1282.15,162.6-231.04,6.94,118.46,152.71,786.4,56.91,402.33-57.7,679.49-122.49,485.5,14.69-402.62,284.72-586.56,331.33-748.98,397.82-355.74,145.63-776.43,136.32-932.84,178.87-128.32,34.91,90.38,72.31,317.28,64.08,274.07-9.95,509.51-36.83,415.86,46.49C499.12,1571.46-74.81,1811.68,8.08,1816.06c247.92,13.1,1037.34-520.07,1633.79-930.46,697.66-480.03,971.41-612.99,1356.44-660.79,119.85-14.88-418.16,69.53-1175.27,635.18-447.8,334.55-1283.34,799.55-952.09,802.16,178.55,1.41,739.58,0,2919.6-2.09,1239.64-1.19,1600.36,34.26,1506.38-10.41-255.24-121.34-1643.28-143.33-2602.64-154.82-698.78-8.37-1153.24-9.25-1327.47-8.37-147.05.74,290.37-330.05,616.14-539.78Z"/>
      <path class="cls-2" d="M836.88,710.87c-201.64,75.17-492.41,235.71-296.97,199.88,128.49-23.56,403.5-85.43,658.89-249.13,83.52-53.54-217.24-4.68-361.92,49.26Z"/>
      <g>
        <path class="cls-1" d="M2990.84,2481.55c-14.58,0-34.53-5.72-59.81-17.19-25.28-11.44-45.21-22.84-59.79-34.14l12.48-30.34c33.32,6.83,62.03,10.26,86.13,10.26,45.83,0,84.95-13.62,117.38-40.85,32.44-27.21,57.27-66.87,74.54-118.94-8.04-19.63-17.27-38.82-27.67-57.57-21.43-36.88-36.97-66.55-46.64-89.02-9.67-22.47-14.5-41.29-14.5-56.46s4.69-27.9,14.06-37.27c9.37-9.37,22.37-18.23,39.05-26.56,4.46,16.67,10.56,35.2,18.3,55.57,7.75,20.37,15.47,41.22,23.21,62.48,7.72,21.29,14.43,42.25,20.08,62.92,5.65,20.69,8.48,39.66,8.48,56.9,0,47.31-9,91.26-27.01,131.89-18.01,40.6-42.7,72.15-74.07,94.62-31.4,22.45-66.13,33.69-104.21,33.69ZM3127.39,1862.98c-14.28,20.52-33.92,42.84-58.9,66.94-27.08-21.41-48.94-41.19-65.61-59.35,31.25-31.25,52.51-53.57,63.83-66.94,19.34,21.11,39.56,40.9,60.68,59.35Z"/>
        <path class="cls-1" d="M3363.98,2480.66c-19.63,0-44.62-6.19-74.96-18.52-30.36-12.36-53.72-25.68-70.08-39.96l12.95-29.89c32.71,11.3,69.75,16.97,111.12,16.97,37.76,0,71.31-9.3,100.64-27.9,29.3-18.6,53.92-47.83,73.85-87.71-59.49-2.07-104.06-7.13-133.66-15.17-29.6-8.02-51.4-20.74-65.39-38.16-13.99-17.39-20.97-40.97-20.97-70.74s6.24-61.57,18.75-91.93c12.51-30.34,28.86-54.73,49.08-73.18,20.23-18.45,40.62-27.67,61.15-27.67,24.99,0,48.34,11.32,70.08,33.92,21.71,22.62,39.27,53.62,52.66,93.06,13.39,39.42,20.08,78.61,20.08,117.58v4.02h54.46c5.03,0,7.57,2.54,7.57,7.6v54.44c0,5.06-2.54,7.6-7.57,7.6h-64.28c-8.93,34.8-23.28,66.72-43.07,95.73-19.78,29.01-42.92,51.26-69.41,66.72-26.47,15.47-54.14,23.21-83,23.21ZM3412.18,2054.44c-12.51,0-25.06,4.83-37.71,14.5-12.65,9.67-22.84,21.66-30.56,35.94-7.75,14.28-11.62,27.23-11.62,38.82,0,21.41,8.48,37.64,25.45,48.64,16.95,11.03,41.64,19.49,74.07,25.45,4.17.89,8.85,1.63,14.06,2.22,5.2.59,33.99,2.1,86.35,4.46-7.42-47.6-22.74-87.83-45.95-120.71-23.21-32.88-47.93-49.33-74.1-49.33Z"/>
        <path class="cls-1" d="M4000.41,2295c-76.76,0-135.98-14.87-177.64-44.64l-6.68-4.91-8.93,4.91c-58.31,29.77-121.82,44.64-190.57,44.64-5.65,0-8.48-2.84-8.48-8.48v-52.66c0-5.65,2.84-8.48,8.48-8.48,63.37,0,115.58-7.28,156.65-21.85l-16.5-20.99c-24.1-34.21-41.66-57.79-52.66-70.74-11.03-12.92-20.99-22.99-29.92-30.12l-14.28,9.82c-11-11.89-16.5-25.43-16.5-40.6,0-21.43,10.56-39.14,31.67-53.13,21.14-13.96,44.35-24.91,69.63-32.81,25.28-7.87,51.03-11.81,77.2-11.81,39.29,0,71.93,10.93,97.97,32.81,26.02,21.85,39.05,49.01,39.05,81.45,0,17.56-3.21,34.36-9.59,50.44-6.41,16.06-14.87,31-25.43,44.84-10.58,13.84-26.27,29.23-47.09,46.2,25.58,11,66.79,16.5,123.62,16.5,5.94,0,8.93,2.84,8.93,8.48v52.66c0,5.65-2.98,8.48-8.93,8.48ZM3893.73,2087.02c0-17.24-6.39-31.3-19.19-42.18-12.78-10.85-29.45-16.28-49.97-16.28-37.2,0-73.06,8.93-107.57,26.76,22.03,17.56,51.18,48.96,87.49,94.17,6.83,8.63,14.43,16.97,22.74,24.99,20.25-13.66,36.38-28.17,48.44-43.51,12.04-15.32,18.06-29.97,18.06-43.95Z"/>
        <path class="cls-1" d="M3993.7,2295c-5.06,0-7.6-2.54-7.6-7.6v-54.44c0-5.06,2.54-7.6,7.6-7.6,23.21,0,42.77-5.57,58.68-16.72,15.91-11.17,29.7-28.19,41.29-51.11l18.3-36.6c23.51-49.97,46.47-85.24,68.94-105.77,22.47-20.52,47.09-30.78,73.87-30.78,17.86,0,35.62,10.85,53.33,32.56,17.71,21.73,31.99,49.7,42.84,83.91,10.85,34.21,16.28,67.24,16.28,99.08,0,18.75-3.4,35.77-10.26,51.11-6.83,15.32-18.89,29.97-36.14,43.95-36.6,0-75.5-5.06-116.72-15.17-41.22-10.11-75.65-23.21-103.32-39.29-14.28,19.36-29.89,33.25-46.84,41.73-16.97,8.48-37.05,12.73-60.26,12.73ZM4300.74,2225.37c-1.18-37.79-8.31-73.92-21.41-108.45-13.1-34.51-26.05-51.75-38.82-51.75-11.62,0-22.47,3.4-32.58,10.26-10.11,6.83-20.23,17.39-30.34,31.67-10.14,14.28-23.83,38.38-41.07,72.29,42.84,23.53,97.58,38.85,164.22,45.98Z"/>
      </g>
      <g>
        <path class="cls-1" d="M1499.61,1925.73l118.79,296.53,118.81-296.53h62.16v363.42h-47.93v-141.53l4.49-152.75-119.31,294.29h-36.68l-119.06-293.52,4.74,151.99v141.53h-47.93v-363.42h61.91Z"/>
        <path class="cls-1" d="M2078.93,2194.29h-152.26l-34.19,94.86h-49.43l138.79-363.42h41.93l139.02,363.42h-49.16l-34.7-94.86ZM1941.15,2154.88h123.55l-61.89-170-61.66,170Z"/>
        <path class="cls-1" d="M2478.29,2119.19c0,27.28-3.45,51.7-10.36,73.26-6.91,21.53-16.7,39.88-29.33,55.03-12.65,15.14-27.97,26.71-45.93,34.68-17.98,7.99-38.03,11.99-60.16,11.99s-41.19-4-59.15-11.99c-17.98-7.97-33.45-19.54-46.42-34.68-13-15.14-23.06-33.5-30.22-55.03-7.15-21.56-10.73-45.98-10.73-73.26v-22.96c0-27.13,3.58-51.55,10.73-73.26,7.15-21.73,17.14-40.16,29.97-55.3,12.8-15.14,28.19-26.74,46.17-34.8,17.96-8.09,37.69-12.11,59.15-12.11s42.23,4.02,60.28,12.11c18.06,8.07,33.45,19.66,46.17,34.8,12.73,15.14,22.54,33.57,29.45,55.3,6.91,21.71,10.36,46.12,10.36,73.26v22.96ZM2430.61,2095.7c0-21.63-2.22-40.75-6.61-57.4-4.42-16.65-10.85-30.61-19.34-41.93-8.51-11.32-18.84-19.88-31.08-25.7-12.23-5.82-26.1-8.76-41.56-8.76s-28.29,2.94-40.43,8.76c-12.16,5.82-22.52,14.38-31.08,25.7-8.58,11.32-15.19,25.28-19.86,41.93-4.66,16.65-6.98,35.77-6.98,57.4v23.48c0,21.78,2.37,41.02,7.1,57.64,4.76,16.65,11.44,30.66,20.1,42.05,8.66,11.4,19.04,20,31.2,25.85,12.14,5.82,25.63,8.73,40.43,8.73,15.64,0,29.52-2.91,41.68-8.73,12.14-5.85,22.42-14.45,30.83-25.85,8.39-11.4,14.75-25.41,19.09-42.05,4.32-16.62,6.49-35.86,6.49-57.64v-23.48Z"/>
        <path class="cls-1" d="M2570.15,2249.96h207.93v39.19h-264.59v-35.94l199.18-288.05h-195.92v-39.44h253.34v35.2l-199.94,289.03Z"/>
      </g>
      <g>
        <path class="cls-1" d="M1424.28,783.46h223.29c-43.19,44.51-63.53,107.53-63.53,195.24,0,73.28,14.48,158.25,28.49,240.42l.55,3.33c30.49,173.28,80.39,426.91,80.88,429.45l2.01,10.19h195.09l-2.94-15.05s-39.44-202.06-85.63-444.52c-3.31-17.49-6.59-34.41-9.77-50.76-15.81-81.42-29.48-151.74-29.48-212.49s14.43-111.32,46.66-155.8h185.28v-167.68h-570.91v167.68Z"/>
        <rect class="cls-1" x="2155.69" y="615.78" width="206.18" height="1046.3"/>
        <path class="cls-1" d="M3155.61,1105.72c0,228.01-98.86,289.48-251.05,349.34l-155.02-839.29h-209.73l180.85,901.27-284.95,100.46,46.79,155.15,12.51-4.49c3.14-1.13,316.1-113.14,429.34-155.96,316.56-117.26,428.76-263.9,428.76-560.35v-436.08h-197.5v489.95Z"/>
        <path class="cls-1" d="M3964.12,615.78h-462.04v167.68h166.3l-192.47,878.63h199.18l185.73-889.21h111c142.76,0,201,77.46,201,267.41v459.89h-280.03v161.91h474.67v-537.09c0-314.38-67.46-509.21-403.33-509.21Z"/>
      </g>
    </g>
  </g>
</svg>
